<?xml version="1.0" encoding="UTF-8"?>
<svg width="710px" height="154px" viewBox="0 0 710 154" version="1.1" xmlns="http://www.w3.org/2000/svg" xmlns:xlink="http://www.w3.org/1999/xlink">
    <!-- Generator: Sketch 48.2 (47327) - http://www.bohemiancoding.com/sketch -->
    <title>bytemine-dark</title>
    <desc>Created with Sketch.</desc>
    <defs></defs>
    <g id="Page-1" stroke="none" stroke-width="1" fill="none" fill-rule="evenodd">
        <g id="bytemine-dark" transform="translate(0.636719, -0.195312)">
            <path d="M167.228,132.53 L198.715,132.53 C214.355,132.53 224.715,124.862 224.715,112.738 L224.715,112.531 C224.715,102.479 217.05,97.505 208.35,95.226 C214.25,92.843 220.676,87.869 220.676,78.026 L220.676,77.817 C220.747243,73.5393877 219.06274,69.4193858 216.015,66.417 C211.975,62.376 205.346,59.992 197.163,59.992 L167.228,59.992 L167.228,132.53 Z M215.184,78.542 C215.184,88.179 207.416,93.464 196.54,93.464 L172.614,93.464 L172.614,64.964 L197.058,64.964 C208.658,64.964 215.184,70.352 215.184,78.331 L215.184,78.538 L215.184,78.542 Z M219.223,112.531 L219.223,112.738 C219.223,121.857 211.352,127.556 198.923,127.556 L172.614,127.556 L172.614,98.438 L197.161,98.438 C211.455,98.438 219.223,103.619 219.223,112.531 Z M262.523,132.531 L267.909,132.531 L267.909,103.723 L298.982,59.994 L292.561,59.994 L265.317,98.956 L238.18,59.994 L231.447,59.994 L262.52,103.826 L262.52,132.526 L262.523,132.531 Z M333.165,132.531 L338.551,132.531 L338.551,64.968 L363.824,64.968 L363.824,59.994 L307.889,59.994 L307.889,64.968 L333.162,64.968 L333.162,132.53 L333.165,132.531 Z M380.191,132.531 L432.291,132.531 L432.291,127.557 L385.574,127.557 L385.574,98.438 L427.109,98.438 L427.109,93.464 L385.574,93.464 L385.574,64.964 L431.774,64.964 L431.774,59.994 L380.188,59.994 L380.188,132.53 L380.191,132.531 Z M447.519,132.531 L463.159,132.531 L463.159,85.485 L483.359,116.158 L483.773,116.158 L504.178,85.174 L504.178,132.53 L520.02,132.53 L520.02,59.994 L502.826,59.994 L483.768,90.666 L464.71,59.994 L447.516,59.994 L447.516,132.53 L447.519,132.531 Z M538.152,132.531 L554.1,132.531 L554.1,59.994 L538.149,59.994 L538.149,132.53 L538.152,132.531 Z M572.231,132.531 L587.974,132.531 L587.974,86.418 L623.087,132.53 L636.656,132.53 L636.656,59.994 L620.909,59.994 L620.909,104.656 L586.936,59.994 L572.228,59.994 L572.228,132.53 L572.231,132.531 Z M654.059,132.531 L709.266,132.531 L709.266,118.331 L669.9,118.331 L669.9,103.1 L704.08,103.1 L704.08,88.9 L669.9,88.9 L669.9,74.19 L708.741,74.19 L708.741,59.99 L654.056,59.99 L654.056,132.53 L654.059,132.531 Z" id="Bytemine" fill="#252323"></path>
            <g id="Group" fill="#000000" fill-rule="nonzero">
                <rect id="Rectangle-path" opacity="0.3" x="28.875" y="35.563" width="17.313" height="17.313"></rect>
                <rect id="Rectangle-path" opacity="0.4" x="80.844" y="9.563" width="5.781" height="5.781"></rect>
                <rect id="Rectangle_3_copy" opacity="0.6" x="92.406" y="26.875" width="5.781" height="5.781"></rect>
                <rect id="Rectangle-path" opacity="0.2" x="51.969" y="0.875" width="11.562" height="11.563"></rect>
                <rect id="Rectangle_4_copy" opacity="0.1" x="20.219" y="6.656" width="11.531" height="11.563"></rect>
                <rect id="Rectangle_4_copy_2" opacity="0.1" x="0" y="29.781" width="8.656" height="8.656"></rect>
                <rect id="Rectangle_4_copy_3" opacity="0.1" x="5.781" y="55.781" width="8.656" height="8.656"></rect>
                <rect id="Rectangle-path" opacity="0.6" x="63.531" y="26.875" width="8.656" height="8.688"></rect>
                <rect id="Rectangle-path" opacity="0.8" x="57.75" y="52.875" width="11.563" height="11.563"></rect>
                <rect id="Rectangle-path" opacity="0.8" x="83.75" y="47.125" width="11.531" height="11.531"></rect>
                <rect id="Rectangle-path" opacity="0.9" x="72.188" y="70.219" width="8.656" height="8.656"></rect>
                <rect id="Rectangle-path" x="63.531" y="78.875" width="8.656" height="8.688"></rect>
                <rect id="Rectangle_7_copy_2" x="77.969" y="84.656" width="11.531" height="5.781"></rect>
                <rect id="Rectangle-path" opacity="0.9" x="37.531" y="73.125" width="8.656" height="8.656"></rect>
            </g>
            <g id="Group" transform="translate(8.000000, 90.000000)" fill-rule="nonzero">
                <path d="M0.65,0.427 L9.891,50.361 L21.449,50.361 C23.6640216,47.5046483 27.075437,45.8331395 30.69,45.8331395 C34.304563,45.8331395 37.7159784,47.5046483 39.931,50.361 L53.781,50.361 C55.9955915,47.5043134 59.4069358,45.8325203 63.0215,45.8325203 C66.6360642,45.8325203 70.0474085,47.5043134 72.262,50.361 L83.821,50.361 L93.062,0.427 L0.65,0.427 Z M37.614,57.19 C37.6631323,60.0018865 36.0070657,62.5643208 33.423152,63.6745054 C30.8392383,64.7846899 27.8405356,64.2221881 25.8346243,62.2510363 C23.828713,60.2798845 23.2138838,57.2914716 24.2787355,54.6885481 C25.3435872,52.0856246 27.8766843,50.3850232 30.689,50.385 C32.5097319,50.3690173 34.2622331,51.0770081 35.5609378,52.3532081 C36.8596424,53.6294081 37.5981564,55.3692669 37.614,57.19 Z M69.945,57.19 C69.9941323,60.0018865 68.3380657,62.5643208 65.754152,63.6745054 C63.1702383,64.7846899 60.1715356,64.2221881 58.1656243,62.2510363 C56.159713,60.2798845 55.5448838,57.2914716 56.6097355,54.6885481 C57.6745872,52.0856246 60.2076843,50.3850232 63.02,50.385 C64.8407319,50.3690173 66.5932331,51.0770081 67.8919378,52.3532081 C69.1906424,53.6294081 69.9291564,55.3692669 69.945,57.19 Z" id="Shape" fill="#000000"></path>
                <rect id="Rectangle_7_copy" fill="#FFFFFF" x="69.969" y="0.469" width="11.531" height="5.75"></rect>
                <rect id="Rectangle_9_copy" fill="#FFFFFF" x="61.313" y="23.562" width="8.656" height="8.657"></rect>
                <rect id="Rectangle_9_copy_3" fill="#FFFFFF" x="26.656" y="29.344" width="2.875" height="2.875"></rect>
                <rect id="Rectangle_9_copy_2" fill="#FFFFFF" x="15.094" y="9.125" width="5.781" height="5.75"></rect>
                <rect id="Rectangle_10_copy" fill="#FFFFFF" x="38.188" y="6.219" width="14.438" height="14.437"></rect>
            </g>
        </g>
    </g>
</svg>